<svg width="247" height="42" viewBox="0 0 247 42" fill="none" xmlns="http://www.w3.org/2000/svg">
<path fill-rule="evenodd" clip-rule="evenodd" d="M20.0515 14.7138C20.0515 17.6511 27.46 18.3142 28.5281 18.5045C29.5963 18.6949 40.3638 19.3714 40.3638 27.4357C40.3607 28.5063 40.1435 29.5658 39.7251 30.553C39.3066 31.5403 38.6949 32.4359 37.9254 33.1881C42.9707 29.0541 46.8966 22.0878 48.3597 14.9108C47.9212 13.6571 47.3527 12.4517 46.663 11.3139C44.5336 16.4816 40.3638 21.4861 40.3638 21.4861C42.6135 16.3388 41.7653 8.46151 41.3016 5.3405C37.4716 2.42241 32.9084 0.5966 28.1057 0.0606346C38.2001 4.14038 38.547 11.5519 39.1171 13.126C35.9298 12.0279 32.2479 11.0046 26.0656 11.042C23.596 11.0624 20.0515 12.7351 20.0515 14.7138Z" fill="#F66E04"/>
<path fill-rule="evenodd" clip-rule="evenodd" d="M20.9135 41.6947C22.1661 41.8574 23.4282 41.9392 24.6916 41.9395C27.7985 41.9445 30.8847 41.439 33.8242 40.4437C30.0222 39.9064 21.803 38.1318 16.0054 32.4439C14.4281 31.4296 13.0674 30.1186 12.0006 28.5851C12.0006 28.5851 20.9307 31.7265 28.6139 30.8799C31.6639 30.5401 32.9347 29.6663 32.9347 27.5959C32.9347 24.7877 28.6758 24.196 27.7587 24.0397C26.8417 23.8832 13.1134 23.0775 13.1134 15.4314C13.1134 9.55314 20.6903 5.88137 26.4535 6.39134C18.7703 5.3544 6.02779 5.81677 0.0309105 19.9157C0.0137373 20.2557 0 20.5718 0 20.9017C0.00253064 23.1674 0.42994 25.4131 1.26051 27.5244C2.09856 20.6093 7.78632 12.7489 16.8365 9.03637C5.36147 15.836 4.58523 28.2282 4.79475 33.3381C6.26926 35.0331 7.98373 36.508 9.88488 37.7169C8.65528 34.3716 6.26821 26.0149 10.5718 20.2795C7.96148 27.1063 13.0894 36.2653 20.9135 41.6947Z" fill="#F66E04"/>
<path fill-rule="evenodd" clip-rule="evenodd" d="M17.5132 0.774734C12.9295 1.9278 8.76459 4.33071 5.49194 7.71029C9.95697 4.69128 17.7742 2.34203 29.6271 6.93854H29.5858C36.3831 8.63844 39.1307 13.1432 39.1307 13.1432C36.5925 4.83408 22.9365 1.69947 17.5132 0.774734Z" fill="#F66E04"/>
<path fill-rule="evenodd" clip-rule="evenodd" d="M48.9745 24.6993C44.5094 31.1011 37.2968 34.3104 35.3423 35.0891C33.2956 36.1356 31.0206 36.6691 28.717 36.6427H28.6311C33.062 37.2998 37.581 37.0685 41.9197 35.9629C45.5089 32.9709 48.0334 29.068 48.9745 24.6993Z" fill="#F66E04"/>
<path fill-rule="evenodd" clip-rule="evenodd" d="M93.3194 14.2233L93.064 17.0625C91.0994 17.014 88.3983 16.9898 86.0653 16.9898C83.3492 16.9898 82.3276 17.0919 82.3276 18.3559C82.3276 19.4253 83.0692 19.7268 84.8865 20.1595L89.346 21.3505C92.9855 22.391 94.1397 23.9613 94.1397 26.5235C94.1397 30.505 91.8559 31.6476 85.8884 31.6476C83.3088 31.6616 80.7343 31.4238 78.2019 30.9378L78.4819 27.9187C82.5043 27.9966 84.297 28.0208 85.913 28.0208C88.8353 28.0208 89.7045 27.7924 89.7045 26.6011C89.7045 25.5122 88.9876 25.2301 87.298 24.8754L82.632 23.5578C79.194 22.5173 77.917 20.9957 77.917 18.4092C77.917 14.3984 80.3285 13.4894 86.0161 13.4894C88.4714 13.4423 90.9237 13.6888 93.3194 14.2233Z" fill="white"/>
<path fill-rule="evenodd" clip-rule="evenodd" d="M101.478 22.5661C101.478 27.0582 102.627 28.298 106.418 28.298C110.21 28.298 111.364 27.0825 111.364 22.5661C111.364 18.0496 110.186 16.8341 106.418 16.8341C102.651 16.8341 101.478 18.0788 101.478 22.5661ZM116.03 22.5661C116.03 29.6203 113.491 31.6719 106.418 31.6719C99.3459 31.6719 96.8362 29.6203 96.8362 22.5661C96.8362 15.5118 99.3459 13.4698 106.418 13.4698C113.491 13.4698 116.03 15.5165 116.03 22.5661Z" fill="white"/>
<path fill-rule="evenodd" clip-rule="evenodd" d="M123.874 26.6787C123.874 27.515 124.463 27.8942 125.794 27.8942H133.839L134.046 31.0882C130.996 31.3944 127.69 31.3944 124.463 31.3944C121.001 31.3944 119.493 29.8241 119.493 27.6171V13.8147H123.874V26.6787Z" fill="white"/>
<path fill-rule="evenodd" clip-rule="evenodd" d="M147.262 18.74C147.035 18.178 146.847 17.6013 146.697 17.0143H145.882C145.739 17.6003 145.559 18.1768 145.342 18.74L143.343 23.7088H149.261L147.262 18.74ZM142.037 26.9077L140.268 31.3173H135.76L142.601 14.9287C142.704 14.5996 142.911 14.3124 143.193 14.1107C143.475 13.909 143.816 13.8036 144.163 13.8103H148.441C148.79 13.7995 149.132 13.9033 149.415 14.1056C149.697 14.308 149.904 14.5975 150.003 14.9287L156.845 31.3173H152.336L150.568 26.9077H142.037Z" fill="white"/>
<path fill-rule="evenodd" clip-rule="evenodd" d="M167.827 21.3988C170.72 21.3988 171.643 20.9126 171.643 19.0652C171.643 17.2178 170.72 16.7607 167.827 16.7607L163.75 16.785V21.3988H167.827ZM172.286 31.3167L170.44 25.9931C169.978 24.9284 169.182 24.5978 167.802 24.5978L163.75 24.5734V31.3167H159.423V13.8146C162.085 13.5862 163.932 13.5617 167.93 13.5617C173.696 13.5617 176.078 14.7821 176.078 18.7881C176.078 21.1704 174.948 22.794 171.721 23.0761V23.2269C172.461 23.2929 173.162 23.5849 173.726 24.0621C174.291 24.5394 174.693 25.1784 174.875 25.891L176.923 31.3167H172.286Z" fill="white"/>
<path d="M189.015 23.5335H179.074V26.1442H189.015V23.5335Z" fill="white"/>
<path fill-rule="evenodd" clip-rule="evenodd" d="M197.307 26.6787C197.307 27.515 197.895 27.8942 199.231 27.8942H207.277L207.481 31.0882C204.431 31.3944 201.127 31.3944 197.895 31.3944C194.458 31.3944 192.925 29.8241 192.925 27.6171V13.8147H197.307V26.6787Z" fill="white"/>
<path fill-rule="evenodd" clip-rule="evenodd" d="M225.326 31.1177C222.196 31.3948 218.357 31.3948 214.869 31.3948C211.952 31.3948 210.08 29.9754 210.052 27.7681V17.3594C210.08 15.1521 211.976 13.7326 214.869 13.7326C218.357 13.7326 222.196 13.7324 225.326 14.0095L225.115 17.1163H216.205C215.026 17.1163 214.485 17.4955 214.485 18.3073V20.7381H223.867V23.7572H214.485V26.825C214.485 27.6611 215.026 28.0403 216.205 28.0403H225.115L225.326 31.1177Z" fill="white"/>
<path fill-rule="evenodd" clip-rule="evenodd" d="M242.364 22.5656C242.364 18.1026 241.185 16.8337 237.453 16.8337H233.15V28.2488C234.427 28.2731 235.866 28.2976 237.453 28.2976C241.171 28.2976 242.364 27.0335 242.364 22.5656ZM247 22.5656C247 29.542 244.491 31.5742 237.467 31.5742C234.111 31.5742 231.318 31.4721 228.778 31.3167V13.8146C231.342 13.6882 234.058 13.5617 237.467 13.5617C244.491 13.5617 247 15.5939 247 22.5656Z" fill="white"/>
</svg>
