<svg width="10" height="12" viewBox="0 0 10 12" fill="none" xmlns="http://www.w3.org/2000/svg">
<path d="M1.04959 0.023158C0.619865 0.0926329 0.190145 0.488902 0.05634 0.944354C-0.00284306 1.13992 -0.000269883 1.48472 0.05634 1.68028C0.0820717 1.7652 0.49378 2.73528 0.974963 3.83403C1.45615 4.93277 1.85499 5.84882 1.86014 5.86684C1.87043 5.89257 1.79838 5.90029 1.52048 5.90286C1.11391 5.90543 0.938939 5.94146 0.653316 6.08556C0.200438 6.31457 -0.0620261 6.81376 0.012596 7.30267C0.0640595 7.63718 0.305938 8.04117 0.606999 8.30106C0.854024 8.51463 4.26605 11.1882 4.35869 11.2448C4.41787 11.2808 4.47191 11.2911 4.5208 11.2834C4.5877 11.2705 9.57708 9.08588 9.80352 8.97266C9.85756 8.94435 9.9116 8.90061 9.92704 8.8723C9.97335 8.78482 10.012 8.11322 9.99651 7.62431C9.96821 6.6954 9.78809 5.80251 9.46386 4.99968C9.22199 4.39498 8.90034 3.69765 8.80256 3.55355C8.45775 3.04921 7.80931 2.84593 7.20976 3.05436C7.08625 3.09553 6.98075 3.12898 6.97561 3.12641C6.97303 3.12126 6.89326 2.94628 6.80063 2.73528C6.59478 2.26697 6.54331 2.1769 6.38378 2.01994C6.22938 1.86555 6.00552 1.7549 5.77136 1.71888C5.50375 1.67771 5.38024 1.70344 4.92736 1.89386L4.65203 2.00965L4.5105 1.87584C4.33038 1.70601 4.17599 1.63654 3.93926 1.6211C3.73341 1.60823 3.47866 1.67256 3.14415 1.82181C3.04894 1.86555 2.96145 1.89128 2.95116 1.88099C2.94344 1.8707 2.81736 1.59279 2.67326 1.26857C2.4005 0.648439 2.295 0.478609 2.07371 0.295914C1.91932 0.167255 1.662 0.0540353 1.46129 0.023158C1.27345 -0.0077203 1.24772 -0.0077203 1.04959 0.023158ZM1.52048 0.576391C1.69288 0.635573 1.87557 0.807976 1.98107 1.0164C2.02996 1.11161 2.40565 1.95561 2.81478 2.8871C3.46065 4.36153 3.56872 4.59054 3.63563 4.63171C3.79002 4.72949 3.99587 4.62914 4.02417 4.44387C4.03447 4.37182 3.96242 4.1917 3.5996 3.37086L3.16473 2.3879L3.28567 2.33387C3.87493 2.06626 4.09108 2.08427 4.25833 2.40592C4.30208 2.48826 4.53109 3.00032 4.7704 3.54583C5.0097 4.08877 5.22327 4.55452 5.24901 4.58025C5.39825 4.72949 5.6813 4.61627 5.6813 4.40785C5.6813 4.34609 5.55007 4.0193 5.27988 3.40174C5.05859 2.89997 4.88104 2.48569 4.88619 2.48054C4.89133 2.47539 5.02514 2.41878 5.1821 2.35445C5.4034 2.26182 5.50118 2.23351 5.60925 2.23351C5.79709 2.23351 5.99265 2.33129 6.09043 2.47282C6.12903 2.532 6.40179 3.13155 6.69513 3.80315C7.08625 4.69604 7.25093 5.04342 7.30497 5.09488C7.4079 5.19267 7.53141 5.19267 7.63948 5.09488C7.77072 4.97652 7.75528 4.90447 7.45936 4.22772C7.16345 3.5587 7.16602 3.60502 7.42848 3.52782C7.63691 3.46864 7.89938 3.4918 8.07178 3.58443C8.32652 3.72338 8.38571 3.81602 8.7511 4.65745C9.12935 5.52203 9.30947 6.11901 9.4124 6.8395C9.48445 7.35413 9.49474 8.46317 9.42784 8.54808C9.4124 8.56867 8.30336 9.06529 6.96274 9.65455L4.52594 10.725L2.717 9.30202C0.787122 7.78385 0.712499 7.71438 0.586414 7.40302C0.424304 6.99389 0.622438 6.6182 1.07017 6.47925C1.37638 6.38404 1.83698 6.42007 2.11231 6.55902C2.17149 6.5899 2.37734 6.76745 2.56776 6.95272C3.1776 7.54455 3.19561 7.55999 3.30883 7.55999C3.47609 7.55999 3.60217 7.40045 3.561 7.24091C3.54299 7.16886 3.51726 7.14056 2.99233 6.63364L2.60893 6.26311L1.60282 3.95754C1.04959 2.69154 0.581267 1.61595 0.565828 1.56706C0.547816 1.51817 0.53495 1.40753 0.53495 1.32004C0.53495 0.774524 1.02385 0.40656 1.52048 0.576391Z" fill="white"/>
</svg>
