<svg width="20" height="20" viewBox="0 0 20 20" fill="none" xmlns="http://www.w3.org/2000/svg">
<path d="M9.26453 0.0058489C7.75499 0.150545 6.61696 0.479047 5.38117 1.1165C3.4962 2.09418 1.97492 3.64674 1.03243 5.55517C0.668736 6.28648 0.500574 6.73622 0.308948 7.45579C0.074304 8.36308 0.00391073 8.91449 0 9.91564C0 10.4162 0.0195537 10.9559 0.0469288 11.1671C0.262019 12.7705 0.762593 14.151 1.6034 15.4415L1.88497 15.8756L1.26317 17.7097C0.919023 18.7226 0.645271 19.5517 0.653093 19.5595C0.660914 19.5673 1.51345 19.3014 2.55371 18.969C3.59397 18.6366 4.45824 18.3628 4.47779 18.3628C4.49343 18.3628 4.65377 18.4528 4.83367 18.5662C5.01356 18.6757 5.38899 18.879 5.66665 19.012C8.1969 20.2204 11.0869 20.326 13.6758 19.2975C16.6089 18.136 18.8615 15.5901 19.6671 12.5319C19.9135 11.5933 19.9721 11.081 19.9721 9.99385C19.9721 8.90667 19.9135 8.39436 19.6671 7.45579C18.7207 3.86965 15.8463 1.0813 12.2171 0.232672C11.6071 0.0918847 10.9735 0.0175813 10.2031 0.0058489C9.77293 -0.00197271 9.35057 -0.00197271 9.26453 0.0058489ZM6.87898 4.64397C6.94546 4.67917 7.03541 4.77303 7.08234 4.85906C7.19575 5.06633 8.14997 7.35411 8.17735 7.4949C8.21254 7.67088 8.03656 7.97201 7.6494 8.41001C7.24268 8.86756 7.15664 9.01226 7.19184 9.17651C7.25832 9.47373 8.1617 10.6743 8.72094 11.2023C9.58521 12.0196 10.8914 12.7978 11.4741 12.8409C11.7752 12.8604 11.8808 12.7783 12.3423 12.1682C12.5495 11.8906 12.7685 11.6129 12.835 11.5503C12.9836 11.3978 13.2066 11.3665 13.4607 11.4604C13.7814 11.5816 15.7485 12.5397 15.8893 12.6453L16.0223 12.7431L15.9988 13.1576C15.9441 14.2214 15.5686 14.7728 14.5831 15.2538C13.6446 15.7113 12.9093 15.6996 11.4741 15.2029C9.54219 14.5342 8.52149 13.8968 7.13318 12.5006C6.43707 11.8045 5.94432 11.214 5.38117 10.4045C4.45042 9.07483 4.09454 8.04631 4.20013 7.00215C4.28617 6.16525 4.57947 5.54735 5.16999 4.95683C5.45548 4.67135 5.82699 4.55403 6.39014 4.57358C6.6287 4.5814 6.80468 4.60487 6.87898 4.64397Z" fill="white"/>
</svg>
